<?xml version="1.0" encoding="utf-8" ?>
<svg xmlns="http://www.w3.org/2000/svg" xmlns:xlink="http://www.w3.org/1999/xlink" width="160" height="148">
	<defs>
		<clipPath id="clip_0">
			<rect x="-48" y="-40" width="5120" height="3200" clip-rule="evenodd"/>
		</clipPath>
	</defs>
	<g clip-path="url(#clip_0)">
		<path fill="rgb(205,132,241)" stroke="none" transform="matrix(4 0 0 4 76 32)" d="M1.60843 28L1.60843 28L1.60843 28C12.6289 23.4851 17.8913 10.9648 13.3916 0L13.3916 0L13.3916 0C2.37109 4.5149 -2.89129 17.0352 1.60843 28Z"/>
	</g>
	<defs>
		<clipPath id="clip_1">
			<rect x="-48" y="-40" width="5120" height="3200" clip-rule="evenodd"/>
		</clipPath>
	</defs>
	<g clip-path="url(#clip_1)">
		<path fill="rgb(197,108,240)" stroke="none" transform="matrix(4 0 0 4 76 36)" d="M14.9341 5.06009C14.3229 5.21459 13.7118 5.40773 13.1389 5.60086C12.4896 5.83262 11.7639 5.40773 11.6493 4.71245C11.382 3.12876 10.9618 1.54506 10.4271 0C4.1632 3.82403 0.381945 10.5064 0.0381945 17.6524C0.0381945 18.0386 0 18.3863 0 18.7725C0 19.1974 0 19.5837 0.0381945 19.9313C0.076389 20.7425 0.152778 21.515 0.305556 22.2876C0.343751 22.7124 0.42014 23.0215 0.496529 23.3691C0.534723 23.485 0.534723 23.5622 0.572918 23.6781C0.649307 23.9485 0.687501 24.2189 0.76389 24.4893C0.802085 24.6052 0.840279 24.721 0.878474 24.8369C0.954863 25.1073 1.03125 25.3391 1.10764 25.6094C1.14584 25.7253 1.18403 25.8412 1.22222 25.9185C1.33681 26.2661 1.48959 26.6137 1.60417 27C1.94792 26.8455 2.29167 26.691 2.63542 26.5365C2.71181 26.4979 2.82639 26.4592 2.90278 26.4206C3.20834 26.2661 3.5139 26.1116 3.78126 25.9571C3.81945 25.9185 3.85765 25.9185 3.89584 25.8798C4.23959 25.6867 4.54515 25.4936 4.8889 25.3004C4.96529 25.2618 5.04168 25.2232 5.11806 25.1459C5.38543 24.9528 5.65279 24.7597 5.95834 24.5665C5.99654 24.5665 5.99654 24.5279 6.03473 24.5279C6.68404 24.0644 7.29515 23.5622 7.86807 23.0215C8.55557 22.4034 9.09029 21.824 9.62502 21.206C13.4445 16.8026 15.3924 10.97 14.9341 5.06009Z"/>
	</g>
	<defs>
		<clipPath id="clip_2">
			<rect x="-48" y="-40" width="5120" height="3200" clip-rule="evenodd"/>
		</clipPath>
	</defs>
	<g clip-path="url(#clip_2)">
		<path fill="rgb(68,75,84)" stroke="none" transform="matrix(4 0 0 4 68 28)" d="M0.288245 28.6627C0.320459 29.1042 0.391329 29.3617 0.468642 29.3617Q0.507298 29.3617 0.545955 29.2513C1.12372 27.9048 1.62476 25.819 2.01689 23.1692C2.04768 24.7854 2.1209 26.4064 2.2394 28C3.22124 25.8343 3.9803 22.1489 4.40934 17.5137C4.83838 12.8784 4.86313 7.74924 4.50835 3C3.86748 4.40933 3.33193 6.45643 2.92247 8.9064C2.91993 6.11413 2.82331 3.32419 2.6334 0.66743C2.59474 0.115618 2.47878 -0.141894 2.38213 0.0788307C0.423543 4.64048 -0.517097 17.4793 0.288245 28.6627ZM2.92247 8.9064C2.25121 12.9229 1.91884 18.0221 2.01689 23.1692C2.26755 21.4755 2.4737 19.5513 2.62696 17.4425C2.82689 14.6915 2.92511 11.7977 2.92247 8.9064L2.92247 8.9064Z" fill-rule="evenodd"/>
	</g>
	<defs>
		<clipPath id="clip_3">
			<rect x="-48" y="-40" width="5120" height="3200" clip-rule="evenodd"/>
		</clipPath>
	</defs>
	<g clip-path="url(#clip_3)">
		<path fill="rgb(205,132,241)" stroke="none" transform="matrix(4 0 0 4 28 32)" d="M13.3705 28L13.3705 28L13.3705 28C2.35376 23.4851 -2.90684 10.9648 1.62948 0L1.62948 0L1.62948 0C12.6462 4.5149 17.9068 17.0352 13.3705 28Z"/>
	</g>
	<defs>
		<clipPath id="clip_4">
			<rect x="-48" y="-40" width="5120" height="3200" clip-rule="evenodd"/>
		</clipPath>
	</defs>
	<g clip-path="url(#clip_4)">
		<path fill="rgb(255,242,0)" stroke="none" transform="matrix(4 0 0 4 40 36)" d="M1.65817 0C-0.720095 6.69231 -0.534293 14.1154 2.17842 20.6923C4.29657 23.3846 7.0836 25.5769 10.428 27C14.4414 16.8462 10.5024 5.42308 1.65817 0Z"/>
	</g>
	<defs>
		<clipPath id="clip_5">
			<rect x="-48" y="-40" width="5120" height="3200" clip-rule="evenodd"/>
		</clipPath>
	</defs>
	<g clip-path="url(#clip_5)">
		<path fill="rgb(68,75,84)" stroke="none" transform="matrix(4 0 0 4 24 28)" d="M14.2294 30C14.0781 30 13.9268 29.9624 13.8134 29.9247C13.246 29.699 12.9434 29.0216 13.2082 28.4572C15.2506 23.4901 15.2506 17.9962 13.1704 13.0292C11.2414 8.43838 7.72398 4.75071 3.22314 2.64346C2.73145 4.03575 2.39105 5.46566 2.23976 6.93321C2.16412 7.53528 1.59678 7.98683 0.991626 7.91157C0.38647 7.83631 -0.0673963 7.27187 0.00824816 6.6698C0.235182 4.63782 0.764693 2.60583 1.55896 0.686736C1.67243 0.42333 1.89936 0.197554 2.16412 0.084666C2.42887 -0.028222 2.76927 -0.028222 3.03403 0.084666C8.59389 2.34243 12.9434 6.6698 15.2506 12.1637C17.5578 17.6952 17.5956 23.7912 15.2884 29.3227C15.0993 29.7366 14.6833 30 14.2294 30Z"/>
	</g>
	<defs>
		<clipPath id="clip_6">
			<rect x="-48" y="-40" width="5120" height="3200" clip-rule="evenodd"/>
		</clipPath>
	</defs>
	<g clip-path="url(#clip_6)">
		<path fill="rgb(205,132,241)" stroke="none" transform="matrix(4 0 0 4 80 68)" d="M0 19C10.4788 19 19 10.4788 19 0C16.3899 0 13.8949 0.537374 11.5919 1.49697C9.7495 2.26465 8.06061 4.49091 6.56364 5.79596C2.53333 9.28889 0 13.2808 0 19Z"/>
	</g>
	<defs>
		<clipPath id="clip_7">
			<rect x="-48" y="-40" width="5120" height="3200" clip-rule="evenodd"/>
		</clipPath>
	</defs>
	<g clip-path="url(#clip_7)">
		<path fill="rgb(197,108,240)" stroke="none" transform="matrix(4 0 0 4 80 76)" d="M11 0C4.49462 3.05618 0 9.55056 0 17C1.89247 17 3.70609 16.7326 5.44086 16.236C9.10753 11.4225 10.9606 5.73034 11 0Z"/>
	</g>
	<defs>
		<clipPath id="clip_8">
			<rect x="-48" y="-40" width="5120" height="3200" clip-rule="evenodd"/>
		</clipPath>
	</defs>
	<g clip-path="url(#clip_8)">
		<path fill="rgb(205,132,241)" stroke="none" transform="matrix(4 0 0 4 4 68)" d="M19 19C8.52121 19 0 10.4788 0 0C10.4788 0 19 8.52121 19 19Z"/>
	</g>
	<defs>
		<clipPath id="clip_9">
			<rect x="-48" y="-40" width="5120" height="3200" clip-rule="evenodd"/>
		</clipPath>
	</defs>
	<g clip-path="url(#clip_9)">
		<path fill="rgb(205,132,241)" stroke="none" transform="matrix(4 0 0 4 52 8)" d="M7 34C-2.33333 24.5933 -2.33333 9.40667 7 0C16.3333 9.40667 16.3333 24.5933 7 34Z"/>
	</g>
	<defs>
		<clipPath id="clip_10">
			<rect x="-48" y="-40" width="5120" height="3200" clip-rule="evenodd"/>
		</clipPath>
	</defs>
	<g clip-path="url(#clip_10)">
		<path fill="rgb(68,75,84)" stroke="none" transform="scale(4 4)" d="M38.8571 15.6376C36.1524 15.6376 33.5238 16.1755 31.0857 17.2129C30.5143 17.4434 30.2476 18.135 30.4762 18.7113C30.7048 19.2876 31.3905 19.5566 31.9619 19.3261C33.7905 18.5576 35.6952 18.0966 37.6762 17.9429C37.1429 26.3188 30.819 33.1194 22.7429 34.3873C26.3619 29.8152 28.3048 24.1672 28.2286 18.2503C28.1905 11.4881 25.5238 5.14849 20.8 0.345794C20.3429 -0.115265 19.619 -0.115265 19.2 0.345794C11.1238 8.56802 9.44762 21.2087 15.0857 31.1983C15.3905 31.7362 16.1143 31.9283 16.6476 31.621C17.181 31.3136 17.3714 30.5836 17.0667 30.0457C12.1143 21.2856 13.3714 10.297 20 2.88162C23.8095 7.108 25.9048 12.5639 25.9429 18.3271C25.981 24.4361 23.6952 30.2378 19.5048 34.6563C10.3619 34.4258 2.89524 27.1256 2.28571 17.9813C4.19048 18.0966 6.05714 18.5576 7.84762 19.2876C8.41905 19.5182 9.10476 19.2492 9.33333 18.6729C9.5619 18.0966 9.29524 17.405 8.72381 17.1745C6.32381 16.1755 3.77143 15.676 1.14286 15.676C0.495238 15.676 0 16.1755 0 16.8287C0 27.9325 8.99048 37 20 37C31.0095 37 40 27.9325 40 16.8287C40 16.1371 39.5048 15.6376 38.8571 15.6376Z"/>
	</g>
	<defs>
		<clipPath id="clip_11">
			<rect x="-48" y="-40" width="5120" height="3200" clip-rule="evenodd"/>
		</clipPath>
	</defs>
	<g clip-path="url(#clip_11)">
		<path fill="rgb(197,108,240)" stroke="none" transform="matrix(4 0 0 4 84 52)" d="M1.1621 17C0.967019 17 0.771935 16.9626 0.615868 16.8504C0.030617 16.5512 -0.164467 15.878 0.147667 15.3169C2.52769 11.0532 3.22999 6.11624 2.17654 1.36629C2.05949 0.767867 2.44966 0.169447 3.07392 0.0198421C3.69819 -0.0923616 4.32246 0.281651 4.47853 0.88007C5.64903 6.15364 4.82968 11.6142 2.21556 16.3268C1.98146 16.813 1.59129 17 1.1621 17Z"/>
	</g>

</svg>